<svg width="1600" height="1200" viewBox="0 0 1600 1200" fill="none" xmlns="http://www.w3.org/2000/svg">
  <defs>
    <radialGradient id="orbGlow" cx="0" cy="0" r="1" gradientUnits="userSpaceOnUse" gradientTransform="translate(1180 420) rotate(90) scale(460 460)">
      <stop offset="0" stop-color="#F3F6F4" stop-opacity="0.92"/>
      <stop offset="0.48" stop-color="#E4EBE6" stop-opacity="0.34"/>
      <stop offset="1" stop-color="#E4EBE6" stop-opacity="0"/>
    </radialGradient>
    <radialGradient id="warmGlow" cx="0" cy="0" r="1" gradientUnits="userSpaceOnUse" gradientTransform="translate(640 900) rotate(90) scale(360 520)">
      <stop offset="0" stop-color="#F9D251" stop-opacity="0.18"/>
      <stop offset="1" stop-color="#F9D251" stop-opacity="0"/>
    </radialGradient>
    <linearGradient id="ringStroke" x1="525" y1="316" x2="1330" y2="988" gradientUnits="userSpaceOnUse">
      <stop stop-color="#F3F6F4" stop-opacity="0.65"/>
      <stop offset="1" stop-color="#C5C8BE" stop-opacity="0.18"/>
    </linearGradient>
    <linearGradient id="cardFill" x1="880" y1="350" x2="1320" y2="865" gradientUnits="userSpaceOnUse">
      <stop stop-color="#F8FAF3" stop-opacity="0.20"/>
      <stop offset="1" stop-color="#DFE3DA" stop-opacity="0.05"/>
    </linearGradient>
    <filter id="blurBig" x="612" y="130" width="1036" height="1036" filterUnits="userSpaceOnUse" color-interpolation-filters="sRGB">
      <feGaussianBlur stdDeviation="70"/>
    </filter>
    <filter id="softShadow" x="786" y="256" width="666" height="747" filterUnits="userSpaceOnUse" color-interpolation-filters="sRGB">
      <feDropShadow dx="0" dy="22" stdDeviation="36" flood-color="#1B1B1B" flood-opacity="0.18"/>
    </filter>
    <pattern id="dots" width="28" height="28" patternUnits="userSpaceOnUse">
      <circle cx="2" cy="2" r="2" fill="#F8FAF3" fill-opacity="0.12"/>
    </pattern>
  </defs>

  <g opacity="0.9">
    <rect width="1600" height="1200" fill="url(#dots)"/>
    <ellipse cx="1130" cy="648" rx="448" ry="448" fill="url(#orbGlow)" filter="url(#blurBig)"/>
    <ellipse cx="636" cy="896" rx="352" ry="352" fill="url(#warmGlow)"/>
  </g>

  <g opacity="0.88">
    <circle cx="1076" cy="584" r="300" stroke="url(#ringStroke)" stroke-width="2.5"/>
    <circle cx="1076" cy="584" r="218" stroke="#F3F6F4" stroke-opacity="0.22" stroke-width="1.5"/>
    <circle cx="1076" cy="584" r="132" stroke="#F9D251" stroke-opacity="0.34" stroke-width="1.5"/>
    <path d="M829 760C903 687 952 648 1070 648C1188 648 1256 703 1302 762" stroke="#F3F6F4" stroke-opacity="0.34" stroke-width="3" stroke-linecap="round"/>
    <path d="M856 414C926 474 972 500 1069 500C1167 500 1227 452 1276 391" stroke="#DFE3DA" stroke-opacity="0.24" stroke-width="2.5" stroke-linecap="round"/>
  </g>

  <g filter="url(#softShadow)">
    <rect x="862" y="332" width="514" height="591" rx="38" fill="url(#cardFill)" stroke="#F8FAF3" stroke-opacity="0.16"/>
    <rect x="910" y="392" width="212" height="12" rx="6" fill="#F8FAF3" fill-opacity="0.50"/>
    <rect x="910" y="428" width="296" height="12" rx="6" fill="#F8FAF3" fill-opacity="0.28"/>
    <rect x="910" y="488" width="414" height="156" rx="26" fill="#1B1B1B" fill-opacity="0.14" stroke="#F8FAF3" stroke-opacity="0.1"/>
    <circle cx="984" cy="564" r="34" fill="#E4EBE6" fill-opacity="0.72"/>
    <circle cx="1114" cy="564" r="34" fill="#F9D251" fill-opacity="0.28"/>
    <circle cx="1244" cy="564" r="34" fill="#E4EBE6" fill-opacity="0.28"/>
    <rect x="910" y="690" width="188" height="16" rx="8" fill="#F8FAF3" fill-opacity="0.42"/>
    <rect x="910" y="728" width="258" height="16" rx="8" fill="#F8FAF3" fill-opacity="0.22"/>
    <rect x="910" y="808" width="154" height="54" rx="27" fill="#F8FAF3" fill-opacity="0.16" stroke="#F8FAF3" stroke-opacity="0.16"/>
    <circle cx="1300" cy="806" r="52" fill="#F8FAF3" fill-opacity="0.12" stroke="#F8FAF3" stroke-opacity="0.18"/>
    <path d="M1280 806H1320" stroke="#F8FAF3" stroke-opacity="0.54" stroke-width="3" stroke-linecap="round"/>
    <path d="M1300 786V826" stroke="#F8FAF3" stroke-opacity="0.54" stroke-width="3" stroke-linecap="round"/>
  </g>

  <g opacity="0.75">
    <circle cx="760" cy="312" r="10" fill="#F9D251"/>
    <circle cx="690" cy="374" r="7" fill="#F3F6F4" fill-opacity="0.7"/>
    <circle cx="1400" cy="452" r="10" fill="#E4EBE6" fill-opacity="0.52"/>
    <circle cx="1360" cy="842" r="12" fill="#F9D251" fill-opacity="0.56"/>
    <circle cx="758" cy="822" r="8" fill="#F3F6F4" fill-opacity="0.38"/>
  </g>
</svg>
